<?xml version="1.0" standalone="no"?>
<!DOCTYPE svg PUBLIC "-//W3C//DTD SVG 20010904//EN"
 "http://www.w3.org/TR/2001/REC-SVG-20010904/DTD/svg10.dtd">
<svg version="1.0" xmlns="http://www.w3.org/2000/svg"
 width="210.000000pt" height="297.000000pt" viewBox="0 0 210.000000 297.000000"
 preserveAspectRatio="xMidYMid meet">
<metadata>
Created by potrace 1.16, written by Peter Selinger 2001-2019
</metadata>
<g transform="translate(0.000000,297.000000) scale(0.100000,-0.100000)"
fill="#000000" stroke="none">
<path d="M832 2539 c-75 -11 -155 -42 -199 -75 -17 -13 -38 -24 -46 -24 -27 0
-165 -76 -216 -119 -51 -43 -183 -219 -196 -262 -4 -13 -17 -40 -28 -58 -28
-46 -42 -251 -26 -355 10 -61 16 -74 55 -113 l44 -44 0 -93 c0 -114 25 -217
75 -312 46 -87 51 -92 88 -102 30 -8 31 -11 48 -103 20 -114 40 -172 86 -261
19 -37 33 -73 30 -80 -6 -17 -224 -138 -407 -227 -80 -39 -138 -71 -130 -71
21 0 259 117 413 203 88 49 129 78 133 93 3 13 -11 54 -39 110 -49 99 -62 142
-80 259 -12 75 -14 80 -39 83 -34 4 -48 21 -97 114 -52 99 -71 177 -71 303 l0
100 -33 27 c-63 50 -72 83 -69 257 2 128 5 160 20 185 10 17 23 45 29 61 19
56 153 234 211 281 31 26 91 62 132 81 41 19 91 43 110 54 125 70 263 102 346
79 25 -7 59 -9 81 -5 21 3 98 9 170 12 106 4 144 1 190 -12 32 -10 90 -25 129
-34 179 -43 399 -263 440 -440 31 -132 7 -318 -63 -477 -39 -89 -55 -163 -62
-299 -6 -102 -9 -115 -44 -180 -48 -88 -62 -103 -103 -111 -25 -5 -34 -11 -34
-26 0 -59 -46 -212 -92 -306 -29 -59 -47 -107 -42 -112 5 -5 92 -46 194 -90
102 -45 219 -97 261 -116 42 -19 83 -34 90 -34 8 1 -42 25 -111 56 -69 30
-141 62 -160 71 -19 9 -82 37 -140 63 -58 25 -111 49 -117 53 -9 6 -5 22 17
61 39 69 74 170 97 279 17 83 19 87 48 93 43 9 60 27 102 113 35 70 38 85 45
191 7 128 24 204 64 300 94 226 98 447 9 606 -44 78 -138 175 -237 242 -58 40
-95 56 -155 71 -43 10 -104 26 -136 36 -47 13 -82 15 -195 11 -198 -9 -232 -9
-282 -3 -25 3 -73 1 -108 -4z"/>
<path d="M1077 1698 c15 -29 44 -75 65 -102 21 -27 38 -52 38 -56 0 -4 7 -10
15 -14 19 -7 -2 29 -51 87 -17 21 -42 60 -55 87 -13 28 -27 50 -32 50 -5 0 4
-24 20 -52z"/>
<path d="M970 1647 c0 -31 -4 -58 -9 -61 -5 -3 -7 -22 -4 -41 3 -20 2 -44 -2
-53 -6 -16 -7 -16 -20 1 -8 11 -11 26 -8 35 4 10 2 13 -5 8 -7 -4 -18 6 -27
24 -8 16 -18 30 -21 30 -3 0 8 -24 25 -54 36 -63 37 -66 12 -66 -11 0 -21 -6
-23 -12 -3 -9 -12 -8 -32 5 -15 10 -35 16 -44 14 -15 -4 -15 -5 1 -6 10 0 28
-8 42 -17 16 -11 29 -12 42 -6 10 6 31 15 47 21 26 11 28 14 24 61 -3 30 0 54
7 60 11 9 12 96 1 107 -3 4 -6 -19 -6 -50z"/>
<path d="M434 1503 c-3 -21 -12 -58 -19 -83 -8 -25 -17 -66 -20 -92 -3 -25
-13 -52 -20 -58 -8 -7 -15 -22 -14 -34 0 -14 2 -16 6 -6 3 8 11 22 18 30 7 8
18 47 24 86 6 39 18 84 26 100 8 16 15 43 15 59 1 26 2 28 11 12 6 -10 8 -21
5 -24 -6 -6 37 -43 51 -43 4 0 20 7 36 15 26 13 28 12 43 -11 20 -29 29 -30
75 -5 34 19 36 19 75 0 21 -10 48 -18 59 -18 14 1 12 3 -8 9 -16 5 -34 13 -40
18 -23 19 -52 18 -91 -1 l-39 -19 -19 23 c-10 13 -25 38 -33 54 l-15 30 6 -32
c5 -29 2 -34 -22 -43 -31 -12 -58 6 -68 46 -10 37 -34 29 -42 -13z"/>
<path d="M1187 1500 c12 -10 24 -28 28 -40 4 -14 15 -20 35 -20 44 0 60 -10
61 -39 2 -23 2 -24 6 -3 7 33 33 42 120 40 92 -2 163 6 172 20 6 10 32 15 62
13 13 -1 17 -18 22 -92 5 -76 10 -96 28 -115 17 -19 20 -26 10 -38 -7 -8 -8
-17 -3 -20 6 -3 13 6 16 20 5 20 1 33 -15 50 -18 19 -22 39 -27 113 -4 82 -7
91 -24 91 -11 0 -22 9 -25 20 -5 20 -33 28 -33 10 0 -22 -32 -59 -46 -53 -8 3
-11 10 -7 16 4 6 -10 1 -31 -12 -32 -20 -44 -22 -104 -16 -39 4 -78 2 -94 -4
-17 -6 -29 -7 -33 -1 -4 6 -21 10 -40 10 -27 0 -37 6 -54 35 -11 19 -26 35
-33 35 -6 0 -2 -9 9 -20z m450 -12 c-3 -8 -6 -5 -6 6 -1 11 2 17 5 13 3 -3 4
-12 1 -19z"/>
<path d="M1751 1485 c-28 -24 -31 -32 -31 -85 0 -51 3 -60 21 -65 11 -4 23 -5
26 -2 2 3 -5 8 -16 12 -17 5 -21 15 -21 55 0 42 4 52 31 74 33 28 77 34 98 14
11 -11 13 -10 9 2 -3 9 -20 16 -45 18 -32 2 -47 -3 -72 -23z"/>
<path d="M269 1493 c-14 -3 -16 -19 -13 -116 2 -62 8 -125 14 -142 9 -28 9
-28 5 10 -13 125 -14 192 -2 218 l12 29 48 -39 c31 -25 47 -46 47 -60 0 -13
-4 -23 -9 -23 -5 0 -7 10 -5 23 4 20 4 21 -5 2 -9 -19 -9 -19 -19 5 -10 24
-11 24 -11 3 -1 -13 8 -28 19 -35 25 -16 25 -25 3 -31 -15 -4 -14 -5 3 -6 17
-1 23 8 31 43 10 44 10 45 -31 78 -45 38 -63 46 -87 41z"/>
<path d="M1812 1467 c-13 -15 -4 -127 10 -127 8 0 7 7 -7 73 -6 29 10 61 26
52 5 -3 6 -20 4 -38 l-5 -32 10 30 c5 17 8 36 5 43 -6 16 -30 16 -43 -1z"/>
<path d="M295 1393 c-12 -40 -15 -74 -11 -113 11 -87 16 -100 55 -120 27 -14
31 -19 16 -20 -11 0 -32 8 -45 17 -20 13 -22 14 -13 2 7 -9 11 -18 8 -20 -2
-3 5 -6 17 -6 12 -1 24 -7 27 -12 4 -6 12 -2 19 9 10 17 8 21 -18 35 -37 19
-46 37 -55 106 -5 41 -2 73 10 114 9 31 14 59 12 62 -3 2 -13 -22 -22 -54z"/>
<path d="M1778 1413 c-2 -10 -1 -29 3 -43 5 -20 6 -16 7 18 0 45 -3 52 -10 25z"/>
<path d="M587 1375 c-21 -7 -41 -16 -44 -19 -10 -10 22 -7 33 3 16 15 64 22
64 10 0 -8 4 -8 15 1 22 18 127 3 167 -24 35 -23 53 -64 24 -53 -8 3 -18 1
-22 -4 -4 -7 5 -9 22 -7 23 2 28 7 26 23 -5 29 -22 46 -61 62 -48 20 -177 25
-224 8z"/>
<path d="M315 1340 c-8 -38 2 -108 21 -137 15 -24 44 -31 44 -12 0 5 -4 8 -10
4 -21 -13 -45 48 -44 112 0 35 -1 63 -2 63 -1 0 -5 -14 -9 -30z"/>
<path d="M1460 1363 c37 -6 80 -24 80 -34 0 -5 7 -9 16 -9 14 0 14 2 0 15 -20
20 -62 35 -94 34 -27 -2 -27 -2 -2 -6z"/>
<path d="M601 1351 c-8 -5 -9 -11 -3 -15 5 -3 15 1 22 9 14 16 3 20 -19 6z"/>
<path d="M1270 1342 c-21 -10 -36 -26 -38 -38 -3 -18 2 -21 26 -20 22 1 28 5
24 18 -4 15 -6 16 -19 2 -22 -22 -29 -8 -8 16 23 25 35 25 35 0 0 -37 75 -55
101 -24 7 8 21 13 31 11 10 -3 18 -2 18 3 0 18 -40 17 -56 -1 -30 -34 -84 -19
-84 23 0 15 8 18 48 18 50 0 142 -26 142 -40 0 -4 -22 -16 -50 -26 -27 -10
-48 -20 -45 -22 2 -2 29 5 60 17 31 12 73 21 94 21 42 0 73 24 53 41 -7 5 -10
6 -7 3 3 -4 0 -13 -6 -21 -12 -14 -89 -18 -89 -5 0 13 -103 42 -151 42 -24 0
-60 -8 -79 -18z"/>
<path d="M508 1339 c7 -8 36 -19 65 -26 44 -10 56 -9 76 4 23 14 25 14 41 -7
24 -32 76 -32 101 1 17 22 24 20 19 -6 -1 -5 4 -5 10 2 16 14 3 35 -18 31 -10
-1 -23 1 -29 5 -7 5 -13 4 -13 -2 0 -5 6 -12 13 -15 8 -3 6 -9 -7 -20 -26 -21
-33 -20 -60 9 -27 28 -43 31 -65 11 -13 -12 -25 -12 -61 -4 -25 6 -54 15 -65
20 -17 9 -18 8 -7 -3z"/>
<path d="M1788 1290 c7 -76 -37 -127 -76 -88 -9 9 -12 9 -12 0 0 -7 5 -12 10
-12 7 0 7 -6 1 -18 -5 -9 -12 -54 -16 -100 l-8 -82 31 11 c17 6 37 18 44 27
11 14 10 14 -12 -1 -46 -32 -53 -24 -46 51 10 92 13 100 44 104 16 2 31 13 39
28 14 28 17 116 5 124 -5 3 -7 -17 -4 -44z"/>
<path d="M1820 1281 c0 -51 -18 -99 -41 -112 -12 -6 -19 -20 -18 -37 1 -21 2
-22 6 -7 6 23 43 66 52 61 3 -2 7 27 9 65 2 38 1 69 -2 69 -3 0 -6 -17 -6 -39z"/>
<path d="M395 1140 c3 -30 7 -70 11 -89 6 -32 5 -34 -19 -29 -15 3 -24 1 -21
-3 3 -5 17 -9 31 -9 28 0 28 -2 2 140 -8 44 -8 44 -4 -10z"/>
<path d="M1796 1145 c-20 -30 -20 -32 -1 -32 8 0 13 2 11 5 -3 2 -1 15 4 28
12 31 7 31 -14 -1z"/>
<path d="M1230 1028 c0 -15 5 -30 10 -33 13 -8 13 -72 0 -80 -6 -4 -8 -11 -4
-16 3 -5 10 -7 15 -4 14 9 11 75 -6 120 -12 35 -14 37 -15 13z"/>
<path d="M872 1013 c-18 -36 -21 -80 -7 -99 8 -11 15 -14 15 -7 0 6 -5 15 -10
18 -9 6 -4 48 9 70 7 12 11 35 5 35 -2 0 -7 -8 -12 -17z"/>
<path d="M977 968 c-14 -9 -1 -11 51 -8 19 1 41 -5 52 -15 12 -11 20 -13 25
-6 4 8 12 8 25 1 13 -7 19 -6 24 5 4 11 -3 13 -32 11 -20 -2 -41 0 -47 4 -15
11 -84 17 -98 8z"/>
<path d="M922 893 c-15 -17 -17 -23 -6 -23 8 0 17 7 20 15 8 19 27 19 64 0 17
-9 30 -12 30 -7 0 10 -47 34 -71 37 -9 1 -25 -9 -37 -22z"/>
<path d="M1137 904 c-3 -3 -23 -6 -43 -6 -26 0 -33 -3 -23 -8 8 -5 33 -5 55 0
52 12 57 12 48 -2 -6 -10 -4 -10 8 0 11 9 18 10 23 2 3 -5 11 -10 17 -10 7 0
6 6 -2 15 -12 15 -71 21 -83 9z"/>
<path d="M1276 893 c-4 -14 -18 -25 -34 -29 -15 -3 -36 -7 -47 -9 -10 -2 -27
3 -37 12 -10 9 -18 11 -18 5 0 -20 35 -31 78 -25 43 6 77 33 70 55 -3 8 -8 4
-12 -9z"/>
<path d="M816 873 c-24 -12 -30 -13 -38 -1 -5 8 -6 3 -2 -15 4 -16 1 -33 -6
-42 -9 -11 -9 -15 -1 -15 6 0 16 11 21 24 11 30 50 58 64 47 21 -17 87 -51 82
-42 -3 5 7 14 23 21 37 15 91 -9 91 -41 0 -11 5 -29 10 -40 8 -15 7 -19 -4
-19 -8 0 -17 8 -19 18 -4 15 -5 15 -6 0 -1 -23 13 -30 44 -22 26 6 26 7 5 21
-22 15 -28 63 -7 63 6 0 23 10 37 21 26 22 22 22 -21 0 -23 -11 -33 -10 -72 7
-39 17 -48 18 -58 6 -16 -19 -42 -18 -81 5 -30 18 -35 18 -62 4z"/>
<path d="M925 724 c-22 -8 -44 -19 -49 -24 -6 -6 -26 -10 -45 -10 -33 0 -101
-35 -101 -52 0 -12 3 -10 40 17 19 14 46 25 60 25 14 0 43 9 65 20 56 29 104
36 121 18 12 -12 25 -13 64 -5 43 8 55 6 107 -18 32 -15 72 -29 88 -32 36 -6
50 -17 40 -33 -5 -8 -11 -8 -20 0 -11 9 -40 11 -220 8 -38 0 -116 4 -172 8
-55 5 -99 6 -97 2 2 -4 -4 -9 -15 -13 -11 -3 -22 -12 -25 -20 -8 -21 1 -19 27
6 20 19 29 20 117 14 52 -4 129 -7 170 -6 176 2 194 1 211 -15 15 -13 17 -13
23 2 5 13 9 14 21 4 9 -7 18 -10 22 -6 3 3 1 6 -6 6 -6 0 -16 11 -21 25 -7 18
-17 25 -35 25 -34 0 -33 0 -90 29 -37 19 -67 26 -115 28 -36 0 -78 4 -95 7
-17 3 -48 -1 -70 -10z"/>
<path d="M940 689 c0 -11 12 -19 38 -24 56 -11 109 -13 123 -5 6 5 -8 7 -32 6
-50 -3 -111 11 -121 28 -5 7 -8 5 -8 -5z"/>
<path d="M1131 588 c-7 -8 -45 -14 -99 -15 -48 -1 -105 -2 -127 -3 l-40 -2 35
-8 c21 -5 42 -4 54 2 11 6 45 8 84 4 50 -5 70 -3 88 9 14 9 30 13 36 9 7 -4 8
-3 4 4 -9 15 -19 15 -35 0z"/>
<path d="M1408 445 c-115 -97 -196 -144 -283 -162 -75 -15 -100 -26 -45 -19
124 16 205 57 342 174 36 31 69 63 72 70 7 16 11 20 -86 -63z"/>
<path d="M26 231 c-17 -3 441 -5 1018 -5 576 1 1049 4 1052 7 7 7 -2035 5
-2070 -2z"/>
</g>
</svg>
