<?xml version="1.0" standalone="no"?>
<!DOCTYPE svg PUBLIC "-//W3C//DTD SVG 20010904//EN"
 "http://www.w3.org/TR/2001/REC-SVG-20010904/DTD/svg10.dtd">
<svg version="1.0" xmlns="http://www.w3.org/2000/svg"
 width="210.000000pt" height="297.000000pt" viewBox="0 0 210.000000 297.000000"
 preserveAspectRatio="xMidYMid meet">
<metadata>
Created by potrace 1.16, written by Peter Selinger 2001-2019
</metadata>
<g transform="translate(0.000000,297.000000) scale(0.100000,-0.100000)"
fill="#000000" stroke="none">
<path d="M1087 2532 c-33 -13 -45 -13 -94 -2 -107 26 -259 -7 -373 -80 -8 -5
-50 -24 -93 -42 -43 -18 -104 -54 -136 -80 -54 -43 -161 -173 -161 -195 0 -5
-11 -20 -25 -33 -14 -13 -25 -30 -25 -37 0 -7 -14 -39 -31 -71 l-31 -57 4
-160 c3 -178 13 -211 76 -250 l31 -20 1 -101 c0 -55 5 -127 11 -160 11 -58 55
-164 69 -164 4 0 10 -13 14 -30 3 -18 12 -30 21 -30 8 0 15 -7 15 -15 0 -9 9
-15 25 -15 31 0 40 -19 49 -95 10 -89 43 -191 88 -273 22 -41 37 -79 35 -87
-10 -23 -508 -285 -544 -285 -7 0 -13 -7 -13 -16 0 -13 7 -15 31 -10 17 3 490
6 1050 6 l1019 0 0 40 c0 26 -5 40 -13 40 -7 0 -96 36 -197 81 -102 44 -222
97 -267 116 -46 20 -83 39 -83 44 0 4 15 31 34 59 40 60 82 183 100 290 11 68
15 75 37 78 35 4 69 23 69 39 0 8 7 21 15 29 8 9 15 24 15 34 0 10 6 20 13 23
25 10 50 112 45 190 -3 45 0 86 9 111 7 21 13 50 13 65 0 14 14 55 31 91 36
77 76 221 85 305 14 138 -36 295 -132 408 -86 102 -243 210 -324 222 -25 4
-80 18 -122 31 -94 28 -278 31 -341 6z m326 -76 c29 -13 76 -27 106 -30 34 -5
66 -16 86 -32 17 -13 37 -24 43 -24 6 0 14 -9 17 -20 4 -14 15 -20 34 -20 22
0 41 -15 89 -68 33 -38 70 -90 83 -118 13 -27 29 -53 35 -59 15 -12 34 -132
34 -210 0 -52 -18 -140 -40 -190 -40 -95 -53 -115 -73 -115 -12 0 -39 -3 -59
-6 -31 -5 -38 -4 -38 10 0 23 -27 20 -33 -4 -7 -26 -55 -49 -66 -32 -9 15 -91
5 -91 -10 0 -5 -10 -8 -22 -6 -16 2 -24 12 -28 33 -6 35 -40 49 -40 16 0 -12
5 -30 12 -41 7 -10 10 -21 8 -23 -3 -2 -40 -2 -82 1 l-78 4 -25 55 c-23 52
-26 54 -54 48 -23 -5 -30 -2 -35 13 -4 10 -14 27 -24 38 -25 29 -42 61 -42 81
-1 21 -23 53 -37 53 -6 0 -13 -16 -16 -35 -6 -36 11 -85 29 -85 6 0 14 -14 18
-31 3 -17 17 -40 30 -50 13 -10 27 -30 30 -44 4 -14 11 -25 16 -25 6 0 10 -18
10 -39 0 -35 3 -40 29 -46 16 -3 69 -5 118 -4 48 2 98 -1 111 -5 14 -5 34 -2
53 8 17 9 42 13 58 10 25 -5 29 -3 34 25 7 31 37 45 37 16 0 -9 9 -15 23 -15
21 0 22 -3 23 -97 1 -88 3 -98 22 -111 12 -8 22 -23 22 -34 0 -16 -6 -18 -37
-16 l-37 3 -13 -130 c-7 -71 -20 -148 -28 -170 -8 -23 -15 -51 -15 -63 0 -12
-9 -50 -21 -84 -26 -78 -24 -75 -54 -123 -13 -22 -24 -52 -25 -67 0 -14 -3
-33 -6 -42 -8 -20 -34 -21 -34 -1 0 28 -30 16 -36 -15 -4 -16 -10 -30 -14 -30
-4 0 -30 -22 -58 -50 -28 -27 -55 -50 -60 -50 -5 0 -17 -9 -27 -20 -10 -11
-31 -20 -47 -20 -15 0 -28 -4 -28 -10 0 -5 -13 -10 -29 -10 -17 0 -33 -4 -36
-10 -10 -16 -82 -12 -89 5 -6 18 -66 21 -66 4 0 -24 -134 3 -179 36 -21 15
-102 97 -136 138 -16 20 -36 36 -42 37 -7 0 -13 8 -13 18 0 9 -11 35 -24 57
-50 82 -76 146 -85 202 -5 32 -16 92 -25 133 -23 111 -34 169 -42 222 -5 42
-9 48 -30 48 -26 0 -30 10 -15 38 6 9 15 51 21 92 7 41 14 87 17 102 8 40 -18
119 -37 116 -8 -2 -16 -16 -18 -31 -3 -26 -6 -27 -40 -21 -48 8 -102 50 -127
100 -24 46 -28 171 -7 197 8 9 10 25 6 41 -7 31 28 153 54 187 11 13 22 34 26
46 4 11 32 47 62 80 30 32 65 69 77 82 35 38 79 68 122 81 46 14 98 41 168 87
63 41 144 50 276 34 84 -11 100 -11 126 3 22 12 59 16 138 16 93 0 116 -3 160
-24z m-153 -926 c0 -13 -7 -20 -20 -20 -13 0 -20 7 -20 20 0 13 7 20 20 20 13
0 20 -7 20 -20z m598 -42 c2 -11 -5 -18 -20 -20 -29 -4 -34 -34 -18 -107 18
-79 5 -157 -30 -190 -28 -27 -51 -111 -30 -111 20 0 9 -27 -15 -38 -50 -23
-55 -18 -49 56 8 107 10 112 44 112 33 0 44 15 53 74 8 49 -4 72 -43 79 -29 6
-30 9 -30 56 0 44 4 52 36 81 40 35 96 40 102 8z m-1505 -43 c20 -18 27 -33
27 -59 0 -28 -5 -37 -27 -48 -34 -16 -41 -59 -19 -112 12 -28 21 -36 40 -36
23 0 26 -4 26 -32 0 -18 3 -57 6 -85 7 -52 6 -53 -19 -53 -18 0 -26 7 -31 25
-4 14 -11 25 -16 25 -16 0 -11 37 5 44 24 9 18 42 -10 54 -31 14 -45 50 -47
116 -1 80 13 186 26 186 6 0 23 -12 39 -25z m301 -976 c25 -28 46 -59 46 -69
0 -19 62 -72 95 -80 11 -3 21 -14 23 -23 3 -15 -9 -17 -117 -17 -68 0 -122 4
-126 10 -3 5 -3 59 1 120 5 78 10 110 19 110 7 0 34 -23 59 -51z m858 43 c3
-8 111 -66 153 -82 11 -4 49 -21 85 -38 36 -16 76 -33 90 -37 14 -4 30 -12 37
-17 7 -6 32 -16 55 -23 24 -7 44 -19 46 -28 3 -14 -8 -15 -80 -12 -46 2 -217
5 -380 7 -201 1 -298 5 -298 12 0 6 32 31 70 54 39 24 99 72 133 106 60 61 82
75 89 58z m-966 -94 c-4 -18 -10 -55 -13 -81 -3 -26 -9 -49 -12 -51 -3 -2 -68
-7 -143 -11 -122 -6 -138 -5 -138 9 0 9 35 32 93 61 50 25 112 58 137 75 25
16 53 29 64 29 16 1 17 -4 12 -31z"/>
<path d="M1230 2250 c0 -11 7 -20 15 -20 8 0 15 9 15 20 0 11 -7 20 -15 20 -8
0 -15 -9 -15 -20z"/>
<path d="M870 2155 c0 -8 7 -15 15 -15 8 0 15 7 15 15 0 8 -7 15 -15 15 -8 0
-15 -7 -15 -15z"/>
<path d="M550 2075 c0 -8 7 -15 15 -15 8 0 15 7 15 15 0 8 -7 15 -15 15 -8 0
-15 -7 -15 -15z"/>
<path d="M1430 2035 c0 -8 7 -15 15 -15 8 0 15 7 15 15 0 8 -7 15 -15 15 -8 0
-15 -7 -15 -15z"/>
<path d="M1660 2035 c0 -8 7 -15 15 -15 8 0 15 7 15 15 0 8 -7 15 -15 15 -8 0
-15 -7 -15 -15z"/>
<path d="M390 2025 c0 -8 7 -15 15 -15 8 0 15 7 15 15 0 8 -7 15 -15 15 -8 0
-15 -7 -15 -15z"/>
<path d="M300 1950 c0 -27 3 -31 23 -28 16 2 22 10 22 28 0 18 -6 26 -22 28
-20 3 -23 -1 -23 -28z"/>
<path d="M1440 1965 c0 -8 7 -15 15 -15 8 0 15 7 15 15 0 8 -7 15 -15 15 -8 0
-15 -7 -15 -15z"/>
<path d="M787 1904 c-4 -4 -7 -16 -7 -26 0 -13 7 -18 26 -18 21 0 25 4 22 22
-3 23 -27 35 -41 22z"/>
<path d="M1770 1860 c0 -29 4 -40 15 -40 11 0 15 11 15 40 0 29 -4 40 -15 40
-11 0 -15 -11 -15 -40z"/>
<path d="M1042 1853 c2 -27 8 -39 21 -41 16 -3 18 2 15 35 -2 27 -8 39 -21 41
-16 3 -18 -2 -15 -35z"/>
<path d="M1370 1855 c0 -16 6 -25 15 -25 9 0 15 9 15 25 0 16 -6 25 -15 25 -9
0 -15 -9 -15 -25z"/>
<path d="M420 1833 c0 -10 -3 -28 -6 -40 -5 -16 -2 -23 9 -23 8 0 17 13 21 31
9 45 8 49 -9 49 -8 0 -15 -8 -15 -17z"/>
<path d="M680 1805 c0 -19 5 -35 10 -35 6 0 10 -32 10 -75 0 -60 3 -75 15 -75
12 0 15 18 15 98 0 97 -8 122 -37 122 -8 0 -13 -13 -13 -35z"/>
<path d="M785 1698 c4 -62 11 -121 16 -130 15 -28 10 -38 -16 -38 -14 0 -29 8
-35 20 -13 24 -35 26 -44 5 -3 -8 -17 -15 -31 -15 -18 0 -25 5 -25 20 0 11 -7
20 -15 20 -11 0 -15 12 -15 50 0 43 -3 50 -19 50 -24 0 -35 -31 -27 -75 4 -19
4 -45 0 -59 -9 -39 -53 -35 -79 7 -22 34 -55 49 -55 24 0 -8 6 -20 14 -26 8
-7 17 -23 20 -37 13 -50 57 -81 70 -49 8 22 43 18 56 -5 13 -23 37 -25 64 -5
26 20 61 19 92 -1 20 -14 30 -15 50 -5 14 6 42 8 62 5 29 -4 42 -1 59 15 12
12 27 21 33 21 7 0 9 13 5 38 -12 69 -26 112 -35 112 -6 0 -10 10 -10 22 0 34
-43 138 -57 138 -16 0 -16 3 2 -67 8 -32 22 -63 30 -69 8 -6 15 -26 15 -45 1
-19 7 -45 15 -59 20 -35 18 -50 -5 -50 -15 0 -22 9 -26 30 -5 23 -12 30 -30
30 -23 0 -24 4 -24 59 0 33 -4 63 -10 66 -5 3 -10 31 -10 61 0 48 -2 54 -21
54 -20 0 -21 -3 -14 -112z"/>
<path d="M1380 1765 c0 -8 7 -15 15 -15 8 0 15 7 15 15 0 8 -7 15 -15 15 -8 0
-15 -7 -15 -15z"/>
<path d="M1180 1748 c0 -30 13 -58 26 -58 15 0 17 12 8 48 -7 23 -34 31 -34
10z"/>
<path d="M440 1700 c0 -11 7 -20 15 -20 8 0 15 9 15 20 0 11 -7 20 -15 20 -8
0 -15 -9 -15 -20z"/>
<path d="M300 1655 c0 -8 7 -15 15 -15 8 0 15 7 15 15 0 8 -7 15 -15 15 -8 0
-15 -7 -15 -15z"/>
<path d="M1010 1629 c0 -25 33 -22 38 4 2 12 -3 17 -17 17 -15 0 -21 -6 -21
-21z"/>
<path d="M1410 1630 c0 -11 7 -20 15 -20 8 0 15 9 15 20 0 11 -7 20 -15 20 -8
0 -15 -9 -15 -20z"/>
<path d="M903 1363 c9 -66 20 -98 36 -110 34 -26 41 -16 36 54 -4 71 -18 93
-58 93 -16 0 -18 -5 -14 -37z"/>
<path d="M1135 1370 c-9 -27 3 -60 21 -60 8 0 14 -9 14 -19 0 -11 15 -34 33
-52 31 -30 38 -33 105 -34 53 -1 72 2 72 11 0 16 -61 34 -117 34 -55 0 -57 22
-4 40 28 9 43 9 59 1 29 -15 57 -14 72 4 16 20 40 19 40 -1 0 -12 6 -15 23
-10 12 3 46 9 75 12 47 6 52 9 52 31 0 24 -2 24 -67 23 -38 -1 -93 1 -124 5
-42 6 -69 3 -108 -10 l-52 -17 -28 31 c-32 36 -57 40 -66 11z"/>
<path d="M573 1369 c-32 -8 -43 -15 -43 -30 0 -12 7 -19 19 -19 11 0 23 -4 26
-10 10 -16 65 -12 71 5 9 22 41 18 54 -5 15 -28 63 -27 82 2 17 26 48 19 48
-12 0 -11 4 -20 9 -20 20 0 41 13 41 25 0 16 -33 45 -52 45 -9 0 -18 5 -20 11
-5 15 -180 21 -235 8z"/>
<path d="M750 1250 c-19 -5 -54 -6 -77 -3 -35 5 -43 3 -43 -10 0 -22 34 -30
96 -22 44 5 54 4 54 -8 0 -15 -57 -47 -84 -47 -11 0 -16 -9 -16 -26 0 -25 2
-26 33 -20 17 4 34 11 35 16 2 6 8 10 14 10 5 0 24 11 42 25 18 14 37 25 43
25 10 0 39 48 32 54 -10 9 -98 13 -129 6z"/>
<path d="M1440 1225 c0 -8 7 -15 15 -15 8 0 15 7 15 15 0 8 -7 15 -15 15 -8 0
-15 -7 -15 -15z"/>
<path d="M1050 1201 c0 -40 9 -61 27 -61 12 0 14 7 9 31 -3 17 -6 38 -6 45 0
8 -7 14 -15 14 -10 0 -15 -10 -15 -29z"/>
<path d="M970 1111 c0 -16 -3 -43 -6 -60 -5 -24 -3 -31 9 -31 24 0 36 31 30
78 -7 49 -33 59 -33 13z"/>
<path d="M1363 1123 c-18 -7 -16 -30 3 -37 9 -3 27 -6 40 -6 15 0 24 -6 24
-15 0 -9 9 -15 25 -15 16 0 25 6 25 15 0 8 -5 15 -10 15 -6 0 -15 11 -20 25
-8 20 -16 25 -42 24 -18 0 -39 -3 -45 -6z"/>
<path d="M1130 1079 c0 -32 4 -42 20 -46 11 -3 20 -9 20 -14 0 -5 7 -9 15 -9
23 0 18 38 -6 45 -16 6 -19 12 -14 36 6 25 4 29 -14 29 -18 0 -21 -6 -21 -41z"/>
<path d="M1060 1055 c0 -33 4 -45 15 -45 11 0 15 12 15 45 0 33 -4 45 -15 45
-11 0 -15 -12 -15 -45z"/>
<path d="M650 1059 c0 -14 5 -19 17 -17 26 5 29 38 4 38 -15 0 -21 -6 -21 -21z"/>
<path d="M827 1030 c-15 -23 -27 -46 -27 -51 0 -5 -4 -9 -10 -9 -5 0 -10 -9
-10 -19 0 -11 -4 -23 -10 -26 -16 -10 -12 -55 6 -62 8 -3 20 -1 27 6 17 17 62
13 81 -8 22 -24 74 -37 89 -22 14 14 64 14 72 1 9 -15 42 -12 49 5 6 18 39 20
64 4 14 -9 29 -7 65 5 26 9 57 16 67 16 23 0 24 3 9 89 -13 73 -22 91 -50 91
-23 0 -24 -18 -4 -56 34 -66 8 -114 -45 -82 -16 10 -25 9 -49 -5 -16 -9 -34
-17 -40 -17 -16 0 -13 27 4 34 8 3 15 13 15 21 0 25 -34 13 -38 -13 -2 -15
-10 -22 -26 -22 -12 0 -27 -5 -34 -12 -9 -9 -20 -7 -46 7 -30 16 -38 17 -59 6
-13 -7 -33 -11 -43 -9 -29 5 -31 64 -4 100 25 34 23 62 -6 66 -14 2 -28 -9
-47 -38z"/>
<path d="M590 901 c0 -15 6 -21 21 -21 25 0 22 33 -4 38 -12 2 -17 -3 -17 -17z"/>
<path d="M1320 840 c0 -11 7 -23 15 -27 21 -8 28 1 20 26 -8 27 -35 27 -35 1z"/>
<path d="M570 810 c0 -11 7 -20 15 -20 8 0 15 9 15 20 0 11 -7 20 -15 20 -8 0
-15 -9 -15 -20z"/>
<path d="M1060 781 c0 -15 6 -21 21 -21 14 0 19 5 17 17 -5 26 -38 29 -38 4z"/>
<path d="M1220 775 c0 -8 7 -15 15 -15 8 0 15 7 15 15 0 8 -7 15 -15 15 -8 0
-15 -7 -15 -15z"/>
<path d="M700 745 c0 -16 6 -25 15 -25 9 0 15 9 15 25 0 16 -6 25 -15 25 -9 0
-15 -9 -15 -25z"/>
<path d="M911 710 c-24 -11 -60 -20 -80 -20 -37 -1 -91 -37 -91 -61 0 -7 9 -9
28 -4 66 16 168 23 201 13 18 -6 59 -10 90 -9 201 4 223 3 240 -13 38 -34 57
-3 25 42 -11 16 -25 22 -53 22 -21 0 -55 7 -74 15 -20 8 -55 15 -77 15 -29 0
-40 -4 -40 -15 0 -24 -36 -17 -54 10 -20 31 -54 32 -115 5z"/>
<path d="M998 573 c-82 -2 -138 -8 -138 -13 0 -6 5 -19 12 -30 7 -10 9 -22 6
-25 -11 -11 -84 14 -103 35 -26 29 -45 25 -45 -9 0 -47 21 -56 133 -55 78 0
102 4 111 16 8 11 35 17 94 20 81 5 82 4 82 -19 0 -18 6 -23 24 -23 14 0 28
-5 31 -10 10 -16 105 0 126 21 37 37 15 59 -34 36 -18 -8 -51 -17 -74 -21 -35
-5 -43 -3 -43 9 0 9 7 18 15 21 22 9 18 34 -5 34 -11 0 -20 5 -20 10 0 6 -8 9
-17 8 -10 -1 -80 -4 -155 -5z"/>
<path d="M1500 410 c0 -27 5 -43 15 -47 23 -8 26 0 19 46 -9 55 -34 56 -34 1z"/>
</g>
</svg>
